<?xml version="1.0" encoding="UTF-8"?>
<svg version="1.1" xmlns="http://www.w3.org/2000/svg" width="500" height="500">
<path d="M0 0 C2.44739081 2.23710312 4.74091407 4.57471429 7 7 C7.78375 7.78375 8.5675 8.5675 9.375 9.375 C10.24125 10.24125 11.1075 11.1075 12 12 C12.62261719 12.56460938 13.24523437 13.12921875 13.88671875 13.7109375 C21.53119682 20.87506237 27.20839709 29.33355571 33 38 C33.89912109 39.3303125 33.89912109 39.3303125 34.81640625 40.6875 C55.88267264 73.75063199 62.61728536 118.59762877 54.77026367 156.76220703 C52.98656979 164.66719666 50.73423467 172.37461239 48 180 C47.57074219 181.21558594 47.14148438 182.43117188 46.69921875 183.68359375 C31.42284562 224.3488687 0.23070701 254.51672986 -38.375 273.1875 C-77.06515131 290.36725968 -122.32476906 292.43884633 -162.02832031 277.22265625 C-166.77165382 275.32623023 -171.40038201 273.22018458 -176 271 C-176.62084473 270.70254883 -177.24168945 270.40509766 -177.88134766 270.09863281 C-194.99358142 261.77424878 -209.61530247 250.45104051 -223 237 C-224.26070312 235.73929687 -224.26070312 235.73929687 -225.546875 234.453125 C-253.04066067 205.39940823 -267.50767742 164.89897643 -267.3125 125.3125 C-267.31100952 124.56398773 -267.30951904 123.81547546 -267.3079834 123.04428101 C-267.26765157 111.77258931 -266.66837643 100.98271671 -264 90 C-263.56494141 88.09927734 -263.56494141 88.09927734 -263.12109375 86.16015625 C-255.08258846 53.56889423 -237.10743803 22.43661579 -211 1 C-210.26394531 0.37609375 -209.52789062 -0.2478125 -208.76953125 -0.890625 C-148.30794809 -50.99581953 -60.33734918 -48.68421307 0 0 Z " fill="#FF3C34" transform="translate(355,119)"/>
<path d="M0 0 C0.66 0.66 1.32 1.32 2 2 C1.851617 4.12682304 1.42264707 6.13518733 0.99609375 8.22265625 C0.85584481 12.14200023 0.85584481 12.14200023 4 20 C10.27 20.33 16.54 20.66 23 21 C24.95814065 13.6546754 24.95814065 13.6546754 24.4375 7.125 C23.99609375 4.9453125 23.99609375 4.9453125 24 3 C25.3125 1.26171875 25.3125 1.26171875 27 0 C29.5625 -0.3125 29.5625 -0.3125 32 0 C34 2 34 2 34.25 5 C34 8 34 8 32 10 C31.01 10 30.02 10 29 10 C28.855625 11.258125 28.71125 12.51625 28.5625 13.8125 C28.26251314 16.42667123 27.84186703 18.47439892 27 21 C27.86882812 20.95359375 28.73765625 20.9071875 29.6328125 20.859375 C40.22127518 20.5277453 40.22127518 20.5277453 43.6875 22.8125 C46.52403524 25.49570901 47.91551206 27.07251015 48.2746582 31.01513672 C48.32443374 37.99766726 48.32443374 37.99766726 48.31567383 40.76904297 C48.31252127 42.8608852 48.33595219 44.95130209 48.36132812 47.04296875 C48.3636021 48.38020656 48.36430416 49.71744815 48.36328125 51.0546875 C48.36626221 52.26624512 48.36924316 53.47780273 48.37231445 54.72607422 C47.81126067 59.65966848 46.03331795 62.1194334 42.3046875 65.296875 C38.43710765 67.29009582 35.35931113 67.46335676 31.125 67.25 C30.43664062 67.23195313 29.74828125 67.21390625 29.0390625 67.1953125 C27.3587619 67.14863748 25.67918837 67.07690939 24 67 C23.67 68.98 23.34 70.96 23 73 C19.85418577 73.02888514 16.70840531 73.04675923 13.5625 73.0625 C12.66466797 73.07087891 11.76683594 73.07925781 10.84179688 73.08789062 C9.56079102 73.09272461 9.56079102 73.09272461 8.25390625 73.09765625 C7.46314697 73.10289307 6.6723877 73.10812988 5.85766602 73.11352539 C4 73 4 73 3 72 C2.95936168 70.33382885 2.957279 68.66611905 3 67 C1.91460937 67.04640625 0.82921875 67.0928125 -0.2890625 67.140625 C-1.73434731 67.17816487 -3.17966211 67.21456264 -4.625 67.25 C-5.33785156 67.28351563 -6.05070313 67.31703125 -6.78515625 67.3515625 C-11.99207492 67.44710229 -14.92308604 66.51499326 -19 63 C-23.38199194 57.04009943 -22.47587582 50.67598104 -22.4375 43.5625 C-22.45748047 42.25216797 -22.47746094 40.94183594 -22.49804688 39.59179688 C-22.49740234 38.32529297 -22.49675781 37.05878906 -22.49609375 35.75390625 C-22.49794678 34.60220947 -22.4997998 33.4505127 -22.50170898 32.26391602 C-21.80842978 27.75372154 -19.85280672 24.38564605 -16.171875 21.6328125 C-13.14623263 20.75124044 -10.39414879 20.81211702 -7.25 20.875 C-5.49429688 20.90207031 -5.49429688 20.90207031 -3.703125 20.9296875 C-2.81109375 20.95289063 -1.9190625 20.97609375 -1 21 C-1.66 17.37 -2.32 13.74 -3 10 C-4.32 9.67 -5.64 9.34 -7 9 C-8.33157895 3.55263158 -8.33157895 3.55263158 -6.875 1.125 C-4.40522151 -0.3568671 -2.83386167 -0.3633156 0 0 Z " fill="#FFF9F9" transform="translate(237,159)"/>
<path d="M0 0 C6.24801086 -0.02290513 12.49587715 -0.04283339 18.74389648 -0.05493164 C20.87118014 -0.05997298 22.99846031 -0.06680591 25.12573242 -0.07543945 C28.17627826 -0.08751379 31.22677845 -0.09323014 34.27734375 -0.09765625 C35.71327126 -0.10539818 35.71327126 -0.10539818 37.1782074 -0.11329651 C38.49946373 -0.11340981 38.49946373 -0.11340981 39.84741211 -0.11352539 C40.62684677 -0.115746 41.40628143 -0.11796661 42.20933533 -0.12025452 C44 0 44 0 45 1 C45.09860131 2.40348735 45.13078937 3.81180477 45.1328125 5.21875 C45.13474609 6.49298828 45.13474609 6.49298828 45.13671875 7.79296875 C45.13285156 8.68628906 45.12898438 9.57960937 45.125 10.5 C45.13080078 11.83998047 45.13080078 11.83998047 45.13671875 13.20703125 C45.13542969 14.05652344 45.13414062 14.90601563 45.1328125 15.78125 C45.13168457 16.56564453 45.13055664 17.35003906 45.12939453 18.15820312 C45 20 45 20 44 21 C42.61839885 21.0927833 41.23211962 21.11747043 39.84741211 21.11352539 C38.96657455 21.11344986 38.085737 21.11337433 37.1782074 21.11329651 C36.22092239 21.10813522 35.26363739 21.10297394 34.27734375 21.09765625 C33.30213272 21.0962413 32.32692169 21.09482635 31.32215881 21.09336853 C28.19390857 21.08775133 25.06572877 21.07519593 21.9375 21.0625 C19.82226666 21.05748722 17.70703219 21.05292393 15.59179688 21.04882812 C10.39448199 21.03862531 5.19732025 21.01905331 0 21 C0 14.07 0 7.14 0 0 Z " fill="#FF4038" transform="translate(228,192)"/>
<path d="M0 0 C4.63779283 1.76236128 5.92884159 4.90535836 8.125 9.1875 C8.52074219 9.94933594 8.91648438 10.71117187 9.32421875 11.49609375 C10.28188817 13.3811904 11.20671444 15.28290773 12.125 17.1875 C12.455 11.9075 12.785 6.6275 13.125 1.1875 C16.095 1.1875 19.065 1.1875 22.125 1.1875 C22.17444705 5.68984373 22.21074161 10.1920293 22.23486328 14.69458008 C22.24491935 16.22618361 22.258566 17.75776795 22.27587891 19.28930664 C22.30014498 21.49109636 22.31148688 23.69263219 22.3203125 25.89453125 C22.33063507 26.57900833 22.34095764 27.26348541 22.35159302 27.96870422 C22.35245382 31.61811661 22.21067666 33.05898502 20.125 36.1875 C17.25 36.6875 17.25 36.6875 14.125 36.1875 C9.50896708 31.23657841 7.04523733 25.22708174 4.125 19.1875 C3.795 24.7975 3.465 30.4075 3.125 36.1875 C0.155 36.1875 -2.815 36.1875 -5.875 36.1875 C-5.94916067 31.54276018 -6.00360615 26.89836501 -6.03979492 22.25317383 C-6.05488094 20.67303464 -6.0753525 19.09293731 -6.10131836 17.51293945 C-6.13771126 15.24159415 -6.15472762 12.97080241 -6.16796875 10.69921875 C-6.18345261 9.99286789 -6.19893646 9.28651703 -6.21488953 8.5587616 C-6.21588713 5.65100546 -6.20533053 3.67061517 -4.53637695 1.22973633 C-2.875 0.1875 -2.875 0.1875 0 0 Z " fill="#FFF6F6" transform="translate(129.875,253.8125)"/>
<path d="M0 0 C0.86625 0.37125 1.7325 0.7425 2.625 1.125 C3.40875 1.41375 4.1925 1.7025 5 2 C5.598125 1.690625 6.19625 1.38125 6.8125 1.0625 C9.56973432 -0.2767281 11.88777527 -0.06678169 14.90234375 0.125 C18.29209 1.53897237 20.32787428 3.8161739 22 7 C22.5751322 10.15844906 22.47819388 13.17838269 22.3125 16.375 C22.28994141 17.20644531 22.26738281 18.03789062 22.24414062 18.89453125 C22.18563654 20.93047353 22.09596795 22.96547945 22 25 C19.03 25 16.06 25 13 25 C13 19.39 13 13.78 13 8 C11.68 8 10.36 8 9 8 C9 13.61 9 19.22 9 25 C6.03 25 3.06 25 0 25 C0 19.39 0 13.78 0 8 C-1.32 8.33 -2.64 8.66 -4 9 C-4.33 14.28 -4.66 19.56 -5 25 C-7.64 25 -10.28 25 -13 25 C-13.1356886 22.12340174 -13.23440753 19.25326537 -13.3125 16.375 C-13.35439453 15.56675781 -13.39628906 14.75851562 -13.43945312 13.92578125 C-13.52644152 9.64595214 -13.36802858 6.87117329 -10.60546875 3.4765625 C-6.88694918 -0.05798234 -5.07094609 -0.29829095 0 0 Z " fill="#FFF2F2" transform="translate(308,265)"/>
<path d="M0 0 C3.15513357 2.07951985 4.88159747 3.50686475 6.75 6.8125 C7.59949023 11.50203279 7.19476196 14.88876361 5.125 19.1875 C1.61763457 23.06406179 -1.33666504 24.66809736 -6.5625 25.0625 C-9.25 24.8125 -9.25 24.8125 -10.25 23.8125 C-10.29092937 21.47952567 -10.29241723 19.14544775 -10.25 16.8125 C-6.785 16.3175 -6.785 16.3175 -3.25 15.8125 C-2.86936779 13.4864143 -2.53730055 11.15194736 -2.25 8.8125 C-3.43424326 7.39672523 -3.43424326 7.39672523 -6.8125 7.75 C-8.5140625 7.7809375 -8.5140625 7.7809375 -10.25 7.8125 C-11.56361698 10.43973396 -11.46253909 12.53860561 -11.56640625 15.4765625 C-11.60830078 16.59804688 -11.65019531 17.71953125 -11.69335938 18.875 C-11.75233398 20.6384375 -11.75233398 20.6384375 -11.8125 22.4375 C-11.85568359 23.62085938 -11.89886719 24.80421875 -11.94335938 26.0234375 C-12.04967426 28.95300328 -12.15170642 31.88265588 -12.25 34.8125 C-14.89 34.8125 -17.53 34.8125 -20.25 34.8125 C-20.3955841 30.27117203 -20.48417333 25.73044659 -20.5625 21.1875 C-20.60439453 19.90230469 -20.64628906 18.61710937 -20.68945312 17.29296875 C-20.82758096 6.62949989 -20.82758096 6.62949989 -17.84375 3 C-12.22290171 -1.74047446 -6.96545488 -2.54507005 0 0 Z " fill="#FFF7F7" transform="translate(354.25,266.1875)"/>
<path d="M0 0 C3.00197464 1.80118478 4.45166366 2.90332732 6 6 C6.41849303 10.5470877 6.53618367 14.67365093 4.8125 18.9375 C2.67668599 21.36790905 0.96684631 22.68906791 -2 24 C-5.3125 24.1875 -5.3125 24.1875 -8 24 C-8 21.03 -8 18.06 -8 15 C-6.02 14.67 -4.04 14.34 -2 14 C-2.33 12.02 -2.66 10.04 -3 8 C-4.65 8.33 -6.3 8.66 -8 9 C-8.33 17.58 -8.66 26.16 -9 35 C-11.97 35 -14.94 35 -18 35 C-18.11651725 30.62522526 -18.18736 26.25085173 -18.25 21.875 C-18.28351563 20.6375 -18.31703125 19.4 -18.3515625 18.125 C-18.47492816 6.65199366 -18.47492816 6.65199366 -14 2 C-9.55139766 -0.9657349 -5.21856465 -0.64087636 0 0 Z " fill="#FFF7F6" transform="translate(241,255)"/>
<path d="M0 0 C2.6875 1.25 2.6875 1.25 5 3 C5.7425 3.53625 6.485 4.0725 7.25 4.625 C9.87421003 8.18642789 10.31200648 11.62429931 10 16 C7.71247345 20.84955629 4.73819169 23.53614032 0 26 C-3.96406718 26.66067786 -5.61950078 26.20144076 -9.1875 24.3125 C-12.67016696 21.44897384 -14.59605996 19.42364022 -15.3515625 14.890625 C-15.61904035 10.69544604 -15.384361 7.88672746 -12.6875 4.5625 C-8.30829357 0.38697759 -6.0237558 -0.51928929 0 0 Z " fill="#FFF7F7" transform="translate(282,265)"/>
<path d="M0 0 C4.12909332 2.14101135 6.11945033 3.81709513 8 8 C6.2126038 9.33905267 4.41995047 10.67109066 2.625 12 C1.62726563 12.7425 0.62953125 13.485 -0.3984375 14.25 C-3 16 -3 16 -5 16 C-5.66 14.35 -6.32 12.7 -7 11 C-5.35 9.68 -3.7 8.36 -2 7 C-3.65 7.33 -5.3 7.66 -7 8 C-7.67673447 11.40320934 -7.67673447 11.40320934 -8 15 C-6.12061828 17.29827312 -6.12061828 17.29827312 -3.0625 17.3125 C0.00358905 17.32540728 0.00358905 17.32540728 1.5625 15.4375 C2.036875 14.963125 2.51125 14.48875 3 14 C5.6875 14.3125 5.6875 14.3125 8 15 C8.33 15.99 8.66 16.98 9 18 C6.37505633 22.19990987 3.60497634 24.25010899 -1 26 C-4.99069931 26.58197698 -6.62401025 26.20642575 -10.1875 24.25 C-13.38100275 21.6951978 -15.62229917 19.7479643 -16.50390625 15.66796875 C-16.61935456 10.78065684 -16.35170014 7.75589332 -13.125 3.9375 C-9.1900324 -0.10201988 -5.58504991 -0.75782276 0 0 Z " fill="#FFF6F5" transform="translate(172,265)"/>
<path d="M0 0 C7.42857143 -0.28571429 7.42857143 -0.28571429 11 2 C11.66 1.34 12.32 0.68 13 0 C16.625 -0.125 16.625 -0.125 20 0 C20 2.31 20 4.62 20 7 C18.35 7.66 16.7 8.32 15 9 C15.33 11.31 15.66 13.62 16 16 C17.32 16.33 18.64 16.66 20 17 C20 19.31 20 21.62 20 24 C16.71911101 24.15259949 14.42202274 24.18086689 11.375 22.875 C9.04506904 21.70513651 9.04506904 21.70513651 7 22.875 C6.01 23.431875 6.01 23.431875 5 24 C2.25 24.125 2.25 24.125 0 24 C0 21.69 0 19.38 0 17 C1.65 16.34 3.3 15.68 5 15 C5 13.02 5 11.04 5 9 C2.525 8.01 2.525 8.01 0 7 C0 4.69 0 2.38 0 0 Z " fill="#FFF9F9" transform="translate(183,266)"/>
<path d="M0 0 C2.64 0 5.28 0 8 0 C8 1.65 8 3.3 8 5 C9.98 5 11.96 5 14 5 C14 7.64 14 10.28 14 13 C12.02 13 10.04 13 8 13 C8 15.97 8 18.94 8 22 C9.98 22 11.96 22 14 22 C14 24.64 14 27.28 14 30 C5.8372093 30.62790698 5.8372093 30.62790698 2.5 28.125 C0.0666675 24.67777896 -0.11974465 22.75148321 -0.09765625 18.5546875 C-0.09443359 17.47832031 -0.09121094 16.40195312 -0.08789062 15.29296875 C-0.07951172 14.16503906 -0.07113281 13.03710938 -0.0625 11.875 C-0.05798828 10.73933594 -0.05347656 9.60367187 -0.04882812 8.43359375 C-0.03701615 5.62234362 -0.02054507 2.8111977 0 0 Z " fill="#FFF4F3" transform="translate(206,260)"/>
<path d="M0 0 C2.64 0 5.28 0 8 0 C8 1.65 8 3.3 8 5 C9.98 5 11.96 5 14 5 C14 7.64 14 10.28 14 13 C12.02 13 10.04 13 8 13 C8.33 15.64 8.66 18.28 9 21 C11.475 21.99 11.475 21.99 14 23 C14 25.31 14 27.62 14 30 C12.6081797 30.16374356 11.21064132 30.27920565 9.8125 30.375 C9.03519531 30.44460938 8.25789063 30.51421875 7.45703125 30.5859375 C4.4395488 29.86634709 2.83545352 28.56273615 0.96606445 26.09912109 C-1.11846708 21.5697296 -0.49918401 16.50176083 -0.3125 11.625 C-0.28994141 10.50738281 -0.26738281 9.38976562 -0.24414062 8.23828125 C-0.18543378 5.4908011 -0.10336846 2.74610239 0 0 Z " fill="#FFF4F4" transform="translate(364,260)"/>
<path d="M0 0 C2.31 0 4.62 0 7 0 C7.33 0.66 7.66 1.32 8 2 C8.66 1.34 9.32 0.68 10 0 C11.32 0 12.64 0 14 0 C14 2.31 14 4.62 14 7 C12.35 7.66 10.7 8.32 9 9 C8.67 13.95 8.34 18.9 8 24 C5.36 24 2.72 24 0 24 C0 16.08 0 8.16 0 0 Z " fill="#FFF8F8" transform="translate(250,266)"/>
<path d="M0 0 C4.95 0 9.9 0 15 0 C14 6 14 6 13 7 C11.00200428 7.09873816 9.00042842 7.12971799 7 7.125 C5.906875 7.12757813 4.81375 7.13015625 3.6875 7.1328125 C1 7 1 7 0 6 C0 4.02 0 2.04 0 0 Z " fill="#FFFBFB" transform="translate(243,237)"/>
<path d="M0 0 C1.2375 0.1546875 1.2375 0.1546875 2.5 0.3125 C4.5 3.3125 4.5 3.3125 4.25 5.875 C3.5 8.3125 3.5 8.3125 1.5 10.3125 C-1.79714793 9.98278521 -3.1226839 9.6898161 -5.5 7.3125 C-5.08785885 3.19108854 -4.5134342 0.56417927 0 0 Z " fill="#FF473F" transform="translate(279.5,272.6875)"/>
<path d="M0 0 C2.625 0.375 2.625 0.375 5 1 C3.35 2.32 1.7 3.64 0 5 C0.33 6.65 0.66 8.3 1 10 C3.97 8.02 6.94 6.04 10 4 C10.66 4.33 11.32 4.66 12 5 C10.73470933 8.79587201 9.33761045 9.84909549 6 12 C2.77750656 12.45114908 0.92718329 12.50845535 -1.9375 10.9375 C-3.6490104 7.81651045 -2.79291991 5.35466116 -2 2 C-1.34 1.34 -0.68 0.68 0 0 Z " fill="#FF5851" transform="translate(166,271)"/>
<path d="M0 0 C0.99 0 1.98 0 3 0 C3 0.99 3 1.98 3 3 C3.99 3 4.98 3 6 3 C5.67 4.32 5.34 5.64 5 7 C2.625 7.625 2.625 7.625 0 8 C-0.66 7.34 -1.32 6.68 -2 6 C-1.44444444 1.44444444 -1.44444444 1.44444444 0 0 Z " fill="#FFEBEA" transform="translate(259,198)"/>
<path d="M0 0 C1.2065625 0.0309375 1.2065625 0.0309375 2.4375 0.0625 C2.7675 2.0425 3.0975 4.0225 3.4375 6.0625 C1.1275 6.3925 -1.1825 6.7225 -3.5625 7.0625 C-3.60504356 5.06295254 -3.60330783 3.06208364 -3.5625 1.0625 C-2.5625 0.0625 -2.5625 0.0625 0 0 Z " fill="#FF4740" transform="translate(235.5625,262.9375)"/>
<path d="M0 0 C0.99 0 1.98 0 3 0 C3 0.99 3 1.98 3 3 C3.66 3 4.32 3 5 3 C4.67 4.65 4.34 6.3 4 8 C1.03 7.505 1.03 7.505 -2 7 C-2.125 4.625 -2.125 4.625 -2 2 C-1.34 1.34 -0.68 0.68 0 0 Z " fill="#FFECEB" transform="translate(238,198)"/>
<path d="M0 0 C0.66 0.33 1.32 0.66 2 1 C0.75006004 4.74981988 -0.7230706 5.86618551 -4 8 C-6.3125 7.75 -6.3125 7.75 -8 7 C-5.42215154 4.35247996 -3.08351902 2.05567935 0 0 Z " fill="#FF4D46" transform="translate(176,275)"/>
</svg>
